<mxfile host="app.diagrams.net" modified="2023-08-23T01:19:24.406Z" agent="Mozilla/5.0 (Windows NT 10.0; Win64; x64) AppleWebKit/537.36 (KHTML, like Gecko) Chrome/116.0.0.0 Safari/537.36" version="21.6.8" etag="0vmni7Ksfz3NCK_bEhcw" type="github">
  <diagram name="第 1 页" id="J18wD1uBFlL4JaV0A0bn">
    <mxGraphModel>
      <root>
        <mxCell id="0" />
        <mxCell id="1" parent="0" />
      </root>
    </mxGraphModel>
  </diagram>
</mxfile>
